<?xml version="1.0" ?><svg fill="white" id="Layer_1" style="enable-background:new 0 0 128 128;" version="1.1" viewBox="0 0 128 128" xml:space="preserve" xmlns="http://www.w3.org/2000/svg" xmlns:xlink="http://www.w3.org/1999/xlink"><style type="text/css">
	.st0{fill:#FFFFFF;}
	.st1{fill:#E4E4E7;}
	.st2{fill:none;stroke:#444B54;stroke-width:6;stroke-linecap:round;stroke-linejoin:round;stroke-miterlimit:10;}
	.st3{fill:#AFAFBC;}
	.st4{fill:#EAD063;}
	.st5{fill:#242426;}
	.st6{fill:#F9DED4;}
	.st7{fill:#D8AC9E;}
	.st8{fill:#FFD0FF;}
	.st9{fill:#6575C1;}
	.st10{fill:#786F74;}
	.st11{fill:#9B9BA5;}
	.st12{fill:#FFD2EA;}
	.st13{fill:#B78BA4;}
	.st14{fill:#444B54;}
	.st15{fill:#5D5D8C;}
	.st16{fill:none;stroke:#FFFFFF;stroke-width:6;stroke-linecap:round;stroke-linejoin:round;stroke-miterlimit:10;}
</style><g><path d="M67,90.8c0-1.7-1.3-3-3-3s-3,1.3-3,3v12.9c0,1.7,1.3,3,3,3s3-1.3,3-3V90.8z"/><path d="M64,115.8c-1.7,0-3,1.3-3,3v4.9c0,1.7,1.3,3,3,3s3-1.3,3-3v-4.9C67,117.2,65.7,115.8,64,115.8z"/><path d="M38,90.8c0.5,0,0.9-0.1,1.3-0.3l19.4-9.7l10.8,0.1l19.1,9.6c0.4,0.2,0.9,0.3,1.3,0.3c1.1,0,2.2-0.6,2.7-1.7   c0.7-1.5,0.1-3.3-1.3-4l-18.3-9.1V3.8c0-1.7-1.3-3-3-3H58c-1.7,0-3,1.3-3,3v72.1l-18.3,9.2c-1.5,0.7-2.1,2.5-1.3,4   C35.8,90.1,36.9,90.8,38,90.8z"/></g></svg>