<?xml version="1.0" encoding="utf-8"?>
<!-- Svg Vector Icons : http://www.onlinewebfonts.com/icon -->
<!DOCTYPE svg PUBLIC "-//W3C//DTD SVG 1.1//EN" "http://www.w3.org/Graphics/SVG/1.1/DTD/svg11.dtd">
<svg fill="white" version="1.1" xmlns="http://www.w3.org/2000/svg" xmlns:xlink="http://www.w3.org/1999/xlink" x="0px" y="0px" viewBox="0 0 1000 1000" enable-background="new 0 0 1000 1000" xml:space="preserve">
<metadata> Svg Vector Icons : http://www.onlinewebfonts.com/icon </metadata>
<g><g transform="translate(0.000000,511.000000) scale(0.100000,-0.100000)"><path d="M4811.8,4968.6c-153.2-81-413.5-411.3-579.8-735.2c-203.5-400.4-271.3-722-271.3-1280v-391.7l1045.9,4.4l1043.7,6.6l-2.2,382.9c-4.4,538.3-81,892.7-277.9,1280c-153.2,304.1-448.6,671.7-593,741.7C5076.6,5023.3,4910.3,5021.1,4811.8,4968.6z"/><path d="M3960.7,2196.4c2.2-10.9,78.8-164.1,170.7-345.7l168.5-328.2l700.2-6.6l700.2-4.4l170.7,336.9c91.9,186,168.5,343.5,168.5,350.1c0,6.6-468.2,13.1-1039.3,13.1C4428.9,2211.7,3960.7,2205.1,3960.7,2196.4z"/><path d="M3118.3,1430.5c-131.3-105-319.5-341.3-404.8-516.4c-89.7-186-153.2-450.7-153.2-643.3V111.2l695.8,4.4l693.6,6.6l-6.6,168.5c-10.9,330.4-131.3,649.8-343.5,919c-100.6,129.1-299.8,301.9-347.9,301.9C3236.5,1511.5,3177.4,1474.3,3118.3,1430.5z"/><path d="M6619.1,1430.5c-131.3-105-319.5-341.3-404.8-516.4c-89.7-186-153.2-450.7-153.2-643.3V111.2l695.8,4.4l693.6,6.6l-6.6,168.5c-10.9,330.4-131.3,649.8-343.5,919c-100.6,129.1-299.8,301.9-347.9,301.9C6737.3,1511.5,6678.2,1474.3,6619.1,1430.5z"/><path d="M4310.8-1464.2v-2625.6l695.8,4.4l693.6,6.6l6.6,2621.2l4.4,2619.1h-700.2h-700.2V-1464.2z M5098.5,789.5c52.5-28.4,89.7-142.2,67.8-203.5c-45.9-120.4-214.4-155.4-288.8-61.3C4754.9,675.7,4925.6,881.4,5098.5,789.5z M5164.1,67.4c13.1-24.1,21.9-100.6,17.5-170.7L5175-228l-168.5-6.6l-170.7-6.6v177.2v175h153.2C5118.2,111.2,5144.4,104.6,5164.1,67.4z M5164.1-921.6c0-10.9-74.4-17.5-164.1-17.5c-89.7,0-164.1,4.4-164.1,10.9c0,4.4,37.2,85.3,81,175L5000-589l81-157.5C5124.7-834.1,5161.9-912.8,5164.1-921.6z M5181.6-1457.6l-6.6-170.7l-137.8-6.6c-83.1-4.4-151,4.4-170.7,19.7c-30.6,26.3-46,282.3-15.3,310.7c6.6,8.8,87.5,15.3,175,15.3h161.9L5181.6-1457.6z M5181.6-2157.8l-6.6-170.7l-168.5-6.6l-170.7-6.6v177.2v175h175h177.2L5181.6-2157.8z M5181.6-2858l-6.6-170.7l-168.5-6.6l-170.7-6.6v177.2v175h175h177.2L5181.6-2858z"/><path d="M2560.4-2164.4v-1925.5l695.8,4.4l693.6,6.6l6.6,1921.1l4.4,1918.9h-700.2h-700.2V-2164.4z"/><path d="M6061.2-2164.4v-1925.5l695.8,4.4l693.6,6.6l6.6,1921.1l4.4,1918.9h-700.2h-700.2V-2164.4z"/><path d="M2291.2-4604c-43.8-91.9-81-170.7-81-175c0-6.6,153.2-10.9,339.1-10.9c186,0,339.1,6.6,339.1,13.1c0,6.6-35,85.3-81,175l-78.8,161.9h-177.2h-179.4L2291.2-4604z"/><path d="M2991.4-4604c-43.8-91.9-81-170.7-81-175c0-6.6,153.2-10.9,339.1-10.9s339.1,4.4,339.1,10.9c0,6.6-35,85.3-81,175l-78.8,164.1h-177.2h-179.4L2991.4-4604z"/><path d="M3691.6-4604c-43.8-91.9-81-170.7-81-175c0-6.6,153.2-10.9,339.1-10.9c186,0,339.1,6.6,339.1,17.5c0,8.8-37.2,87.5-81,175l-83.1,157.5h-175h-177.2L3691.6-4604z"/><path d="M4741.8-4604c-43.8-91.9-81-170.7-81-175c0-6.6,153.2-10.9,339.1-10.9c186,0,339.1,4.4,339.1,10.9c0,6.6-35,85.3-81,175l-78.8,164.1h-177.2h-179.4L4741.8-4604z"/><path d="M5792.1-4604c-43.8-91.9-81-170.7-81-175c0-6.6,153.2-10.9,339.1-10.9s339.1,6.6,339.1,13.1c0,6.6-35,85.3-81,175l-78.8,161.9h-177.2H5873L5792.1-4604z"/><path d="M6492.2-4604c-43.8-91.9-81-170.7-81-175c0-6.6,153.1-10.9,339.1-10.9c186,0,339.1,4.4,339.1,10.9c0,6.6-35,85.3-81,175l-78.8,164.1h-177.2h-179.4L6492.2-4604z"/><path d="M7192.4-4604c-43.8-91.9-81-170.7-81-175c0-6.6,153.2-10.9,339.1-10.9s339.1,6.6,339.1,17.5c0,8.8-37.2,87.5-81,175l-83.1,157.5h-175.1h-177.2L7192.4-4604z"/></g></g>
</svg>